0
SECTION
2
HEADER
9
$EXTMIN
10
452220.000000
20
4800899.130000
30
261.730000
9
$EXTMAX
10
452310.550000
20
4800946.410000
30
274.000000
9
$PDMODE
70
3
9
$PDSIZE
40
  0.80
0
ENDSEC
0
SECTION
2
TABLES
0
TABLE
2
LTYPE
70
10
0
LTYPE
2
CONTINUOUS
70
64
3
Continuous
72
65
73
0
40
0.0
0
LTYPE
2
DASHED
70
64
3
Dashed
72
65
73
2
40
2.5
49
1.25
49
-1.25
0
ENDTAB
0
TABLE
2
LAYER
70
10
0
LAYER
2
CentreLine
70
64
62
5
6
CONTINUOUS
0
LAYER
2
Stations
70
64
62
7
6
CONTINUOUS
0
LAYER
2
Labels
70
64
62
7
6
CONTINUOUS
0
LAYER
2
Surface
70
64
62
5
6
DASHED
0
LAYER
2
SurfaceStations
70
64
62
7
6
CONTINUOUS
0
LAYER
2
SurfaceLabels
70
64
62
7
6
CONTINUOUS
0
ENDTAB
0
ENDSEC
0
SECTION
2
ENTITIES
0
LINE
8
CentreLine
10
452220.00
20
4800904.00
30
274.00
11
452220.71
21
4800903.07
31
272.74
0
LINE
8
CentreLine
10
452220.71
20
4800903.07
30
272.74
11
452220.40
21
4800904.94
31
270.55
0
LINE
8
CentreLine
10
452220.40
20
4800904.94
30
270.55
11
452220.40
21
4800904.94
31
266.33
0
LINE
8
CentreLine
10
452220.40
20
4800904.94
30
266.33
11
452225.18
21
4800904.04
31
267.28
0
LINE
8
CentreLine
10
452225.18
20
4800904.04
30
267.28
11
452226.74
21
4800904.62
31
268.67
0
LINE
8
CentreLine
10
452226.74
20
4800904.62
30
268.67
11
452228.77
21
4800904.34
31
267.23
0
LINE
8
CentreLine
10
452228.77
20
4800904.34
30
267.23
11
452224.45
21
4800899.13
31
265.92
0
LINE
8
CentreLine
10
452228.77
20
4800904.34
30
267.23
11
452231.34
21
4800905.50
31
268.20
0
LINE
8
CentreLine
10
452231.34
20
4800905.50
30
268.20
11
452234.20
21
4800904.59
31
268.10
0
LINE
8
CentreLine
10
452234.20
20
4800904.59
30
268.10
11
452236.72
21
4800904.33
31
267.61
0
LINE
8
CentreLine
10
452236.72
20
4800904.33
30
267.61
11
452236.72
21
4800904.33
31
262.81
0
LINE
8
CentreLine
10
452236.72
20
4800904.33
30
267.61
11
452239.81
21
4800907.35
31
266.77
0
LINE
8
CentreLine
10
452239.81
20
4800907.35
30
266.77
11
452240.32
21
4800908.95
31
265.20
0
LINE
8
CentreLine
10
452240.32
20
4800908.95
30
265.20
11
452245.75
21
4800913.88
31
264.69
0
LINE
8
CentreLine
10
452245.75
20
4800913.88
30
264.69
11
452249.71
21
4800920.04
31
264.04
0
LINE
8
CentreLine
10
452249.71
20
4800920.04
30
264.04
11
452251.24
21
4800923.71
31
265.04
0
LINE
8
CentreLine
10
452251.24
20
4800923.71
30
265.04
11
452256.79
21
4800925.65
31
264.52
0
LINE
8
CentreLine
10
452256.79
20
4800925.65
30
264.52
11
452260.45
21
4800932.07
31
264.14
0
LINE
8
CentreLine
10
452260.45
20
4800932.07
30
264.14
11
452264.55
21
4800935.93
31
263.84
0
LINE
8
CentreLine
10
452264.55
20
4800935.93
30
263.84
11
452268.26
21
4800934.74
31
263.57
0
LINE
8
CentreLine
10
452268.26
20
4800934.74
30
263.57
11
452272.25
21
4800935.25
31
263.71
0
LINE
8
CentreLine
10
452272.25
20
4800935.25
30
263.71
11
452274.00
21
4800937.68
31
263.55
0
LINE
8
CentreLine
10
452274.00
20
4800937.68
30
263.55
11
452275.73
21
4800934.94
31
262.92
0
LINE
8
CentreLine
10
452275.73
20
4800934.94
30
262.92
11
452282.25
21
4800934.17
31
262.92
0
LINE
8
CentreLine
10
452282.25
20
4800934.17
30
262.92
11
452282.26
21
4800932.36
31
263.02
0
LINE
8
CentreLine
10
452282.26
20
4800932.36
30
263.02
11
452283.08
21
4800934.06
31
263.25
0
LINE
8
CentreLine
10
452282.26
20
4800932.36
30
263.02
11
452281.47
21
4800930.14
31
263.87
0
LINE
8
CentreLine
10
452282.25
20
4800934.17
30
262.92
11
452285.23
21
4800934.23
31
263.27
0
LINE
8
CentreLine
10
452285.23
20
4800934.23
30
263.27
11
452286.14
21
4800936.99
31
263.45
0
LINE
8
CentreLine
10
452286.14
20
4800936.99
30
263.45
11
452287.39
21
4800940.90
31
263.29
0
LINE
8
CentreLine
10
452287.39
20
4800940.90
30
263.29
11
452286.35
21
4800942.63
31
263.46
0
LINE
8
CentreLine
10
452286.35
20
4800942.63
30
263.46
11
452287.22
21
4800944.34
31
261.98
0
LINE
8
CentreLine
10
452286.35
20
4800942.63
30
263.46
11
452288.03
21
4800943.53
31
263.26
0
LINE
8
CentreLine
10
452288.03
20
4800943.53
30
263.26
11
452289.71
21
4800946.41
31
263.01
0
LINE
8
CentreLine
10
452288.03
20
4800943.53
30
263.26
11
452295.99
21
4800941.71
31
263.06
0
LINE
8
CentreLine
10
452295.99
20
4800941.71
30
263.06
11
452297.20
21
4800940.41
31
263.21
0
LINE
8
CentreLine
10
452297.20
20
4800940.41
30
263.21
11
452299.86
21
4800940.00
31
263.22
0
LINE
8
CentreLine
10
452299.86
20
4800940.00
30
263.22
11
452303.69
21
4800942.75
31
262.91
0
LINE
8
CentreLine
10
452303.69
20
4800942.75
30
262.91
11
452304.84
21
4800943.23
31
262.81
0
LINE
8
CentreLine
10
452304.84
20
4800943.23
30
262.81
11
452307.59
21
4800942.20
31
262.61
0
LINE
8
CentreLine
10
452304.84
20
4800943.23
30
262.81
11
452307.68
21
4800940.48
31
263.08
0
LINE
8
CentreLine
10
452307.68
20
4800940.48
30
263.08
11
452308.87
21
4800940.98
31
262.44
0
LINE
8
CentreLine
10
452308.87
20
4800940.98
30
262.44
11
452310.55
21
4800939.58
31
261.73
0
TEXT
8
Labels
10
452310.55
20
4800939.58
30
261.73
40
  0.60
1
2649_mareserection.mares0904085.16
0
POINT
8
Stations
10
452310.55
20
4800939.58
30
261.73
0
TEXT
8
Labels
10
452308.87
20
4800940.98
30
262.44
40
  0.60
1
2649_mareserection.mares0904085.15
0
POINT
8
Stations
10
452308.87
20
4800940.98
30
262.44
0
TEXT
8
Labels
10
452307.68
20
4800940.48
30
263.08
40
  0.60
1
2649_mareserection.mares0904085.14
0
POINT
8
Stations
10
452307.68
20
4800940.48
30
263.08
0
TEXT
8
Labels
10
452307.59
20
4800942.20
30
262.61
40
  0.60
1
2649_mareserection.mares0904085.13
0
POINT
8
Stations
10
452307.59
20
4800942.20
30
262.61
0
TEXT
8
Labels
10
452304.84
20
4800943.23
30
262.81
40
  0.60
1
2649_mareserection.mares0904085.12
0
POINT
8
Stations
10
452304.84
20
4800943.23
30
262.81
0
TEXT
8
Labels
10
452303.69
20
4800942.75
30
262.91
40
  0.60
1
2649_mareserection.mares0904085.11
0
POINT
8
Stations
10
452303.69
20
4800942.75
30
262.91
0
TEXT
8
Labels
10
452299.86
20
4800940.00
30
263.22
40
  0.60
1
2649_mareserection.mares0904085.10
0
POINT
8
Stations
10
452299.86
20
4800940.00
30
263.22
0
TEXT
8
Labels
10
452297.20
20
4800940.41
30
263.21
40
  0.60
1
2649_mareserection.mares0904085.9
0
POINT
8
Stations
10
452297.20
20
4800940.41
30
263.21
0
TEXT
8
Labels
10
452295.99
20
4800941.71
30
263.06
40
  0.60
1
2649_mareserection.mares0904085.8
0
POINT
8
Stations
10
452295.99
20
4800941.71
30
263.06
0
TEXT
8
Labels
10
452289.71
20
4800946.41
30
263.01
40
  0.60
1
2649_mareserection.mares0904085.7
0
POINT
8
Stations
10
452289.71
20
4800946.41
30
263.01
0
TEXT
8
Labels
10
452288.03
20
4800943.53
30
263.26
40
  0.60
1
2649_mareserection.mares0904085.6
0
POINT
8
Stations
10
452288.03
20
4800943.53
30
263.26
0
TEXT
8
Labels
10
452287.22
20
4800944.34
30
261.98
40
  0.60
1
2649_mareserection.mares0904085.5
0
POINT
8
Stations
10
452287.22
20
4800944.34
30
261.98
0
TEXT
8
Labels
10
452286.35
20
4800942.63
30
263.46
40
  0.60
1
2649_mareserection.mares0904085.4
0
POINT
8
Stations
10
452286.35
20
4800942.63
30
263.46
0
TEXT
8
Labels
10
452287.39
20
4800940.90
30
263.29
40
  0.60
1
2649_mareserection.mares0904085.3
0
POINT
8
Stations
10
452287.39
20
4800940.90
30
263.29
0
TEXT
8
Labels
10
452286.14
20
4800936.99
30
263.45
40
  0.60
1
2649_mareserection.mares0904085.2
0
POINT
8
Stations
10
452286.14
20
4800936.99
30
263.45
0
TEXT
8
Labels
10
452285.23
20
4800934.23
30
263.27
40
  0.60
1
2649_mareserection.mares0904085.1
0
POINT
8
Stations
10
452285.23
20
4800934.23
30
263.27
0
TEXT
8
Labels
10
452282.25
20
4800934.17
30
262.92
40
  0.60
1
2649_mareserection.mares0904085.0
0
POINT
8
Stations
10
452282.25
20
4800934.17
30
262.92
0
TEXT
8
Labels
10
452281.47
20
4800930.14
30
263.87
40
  0.60
1
2649_mareserection.mares070701.28
0
POINT
8
Stations
10
452281.47
20
4800930.14
30
263.87
0
TEXT
8
Labels
10
452283.08
20
4800934.06
30
263.25
40
  0.60
1
2649_mareserection.mares070701.27
0
POINT
8
Stations
10
452283.08
20
4800934.06
30
263.25
0
TEXT
8
Labels
10
452282.26
20
4800932.36
30
263.02
40
  0.60
1
2649_mareserection.mares070701.26
0
POINT
8
Stations
10
452282.26
20
4800932.36
30
263.02
0
TEXT
8
Labels
10
452282.25
20
4800934.17
30
262.92
40
  0.60
1
2649_mareserection.mares070701.25
0
POINT
8
Stations
10
452282.25
20
4800934.17
30
262.92
0
TEXT
8
Labels
10
452275.73
20
4800934.94
30
262.92
40
  0.60
1
2649_mareserection.mares070701.24
0
POINT
8
Stations
10
452275.73
20
4800934.94
30
262.92
0
TEXT
8
Labels
10
452274.00
20
4800937.68
30
263.55
40
  0.60
1
2649_mareserection.mares070701.23
0
POINT
8
Stations
10
452274.00
20
4800937.68
30
263.55
0
TEXT
8
Labels
10
452272.25
20
4800935.25
30
263.71
40
  0.60
1
2649_mareserection.mares070701.22
0
POINT
8
Stations
10
452272.25
20
4800935.25
30
263.71
0
TEXT
8
Labels
10
452268.26
20
4800934.74
30
263.57
40
  0.60
1
2649_mareserection.mares070701.21
0
POINT
8
Stations
10
452268.26
20
4800934.74
30
263.57
0
TEXT
8
Labels
10
452264.55
20
4800935.93
30
263.84
40
  0.60
1
2649_mareserection.mares070701.20
0
POINT
8
Stations
10
452264.55
20
4800935.93
30
263.84
0
TEXT
8
Labels
10
452260.45
20
4800932.07
30
264.14
40
  0.60
1
2649_mareserection.mares070701.19
0
POINT
8
Stations
10
452260.45
20
4800932.07
30
264.14
0
TEXT
8
Labels
10
452256.79
20
4800925.65
30
264.52
40
  0.60
1
2649_mareserection.mares070701.18
0
POINT
8
Stations
10
452256.79
20
4800925.65
30
264.52
0
TEXT
8
Labels
10
452251.24
20
4800923.71
30
265.04
40
  0.60
1
2649_mareserection.mares070701.17
0
POINT
8
Stations
10
452251.24
20
4800923.71
30
265.04
0
TEXT
8
Labels
10
452249.71
20
4800920.04
30
264.04
40
  0.60
1
2649_mareserection.mares070701.16
0
POINT
8
Stations
10
452249.71
20
4800920.04
30
264.04
0
TEXT
8
Labels
10
452245.75
20
4800913.88
30
264.69
40
  0.60
1
2649_mareserection.mares070701.15
0
POINT
8
Stations
10
452245.75
20
4800913.88
30
264.69
0
TEXT
8
Labels
10
452240.32
20
4800908.95
30
265.20
40
  0.60
1
2649_mareserection.mares070701.14
0
POINT
8
Stations
10
452240.32
20
4800908.95
30
265.20
0
TEXT
8
Labels
10
452239.81
20
4800907.35
30
266.77
40
  0.60
1
2649_mareserection.mares070701.13
0
POINT
8
Stations
10
452239.81
20
4800907.35
30
266.77
0
TEXT
8
Labels
10
452236.72
20
4800904.33
30
262.81
40
  0.60
1
2649_mareserection.mares070701.12
0
POINT
8
Stations
10
452236.72
20
4800904.33
30
262.81
0
TEXT
8
Labels
10
452236.72
20
4800904.33
30
267.61
40
  0.60
1
2649_mareserection.mares070701.11
0
POINT
8
Stations
10
452236.72
20
4800904.33
30
267.61
0
TEXT
8
Labels
10
452234.20
20
4800904.59
30
268.10
40
  0.60
1
2649_mareserection.mares070701.10
0
POINT
8
Stations
10
452234.20
20
4800904.59
30
268.10
0
TEXT
8
Labels
10
452231.34
20
4800905.50
30
268.20
40
  0.60
1
2649_mareserection.mares070701.9
0
POINT
8
Stations
10
452231.34
20
4800905.50
30
268.20
0
TEXT
8
Labels
10
452224.45
20
4800899.13
30
265.92
40
  0.60
1
2649_mareserection.mares070701.8
0
POINT
8
Stations
10
452224.45
20
4800899.13
30
265.92
0
TEXT
8
Labels
10
452228.77
20
4800904.34
30
267.23
40
  0.60
1
2649_mareserection.mares070701.7
0
POINT
8
Stations
10
452228.77
20
4800904.34
30
267.23
0
TEXT
8
Labels
10
452226.74
20
4800904.62
30
268.67
40
  0.60
1
2649_mareserection.mares070701.6
0
POINT
8
Stations
10
452226.74
20
4800904.62
30
268.67
0
TEXT
8
Labels
10
452225.18
20
4800904.04
30
267.28
40
  0.60
1
2649_mareserection.mares070701.5
0
POINT
8
Stations
10
452225.18
20
4800904.04
30
267.28
0
TEXT
8
Labels
10
452220.40
20
4800904.94
30
266.33
40
  0.60
1
2649_mareserection.mares070701.4
0
POINT
8
Stations
10
452220.40
20
4800904.94
30
266.33
0
TEXT
8
Labels
10
452220.40
20
4800904.94
30
270.55
40
  0.60
1
2649_mareserection.mares070701.3
0
POINT
8
Stations
10
452220.40
20
4800904.94
30
270.55
0
TEXT
8
Labels
10
452220.71
20
4800903.07
30
272.74
40
  0.60
1
2649_mareserection.mares070701.2
0
POINT
8
Stations
10
452220.71
20
4800903.07
30
272.74
0
TEXT
8
Labels
10
452220.00
20
4800904.00
30
274.00
40
  0.60
1
2649_mareserection.mares070701.1
0
POINT
8
Stations
10
452220.00
20
4800904.00
30
274.00
000
ENDSEC
000
EOF
