0
SECTION
2
HEADER
9
$EXTMIN
10
-45.275000
20
-23.640000
30
-6.135000
9
$EXTMAX
10
45.275000
20
23.640000
30
6.135000
9
$PDMODE
70
3
9
$PDSIZE
40
  0.80
0
ENDSEC
0
SECTION
2
TABLES
0
TABLE
2
LTYPE
70
10
0
LTYPE
2
CONTINUOUS
70
64
3
Continuous
72
65
73
0
40
0.0
0
LTYPE
2
DASHED
70
64
3
Dashed
72
65
73
2
40
2.5
49
1.25
49
-1.25
0
ENDTAB
0
TABLE
2
LAYER
70
10
0
LAYER
2
CentreLine
70
64
62
5
6
CONTINUOUS
0
LAYER
2
Stations
70
64
62
7
6
CONTINUOUS
0
LAYER
2
Labels
70
64
62
7
6
CONTINUOUS
0
LAYER
2
Surface
70
64
62
5
6
DASHED
0
LAYER
2
SurfaceStations
70
64
62
7
6
CONTINUOUS
0
LAYER
2
SurfaceLabels
70
64
62
7
6
CONTINUOUS
0
ENDTAB
0
ENDSEC
0
SECTION
2
ENTITIES
0
LINE
8
CentreLine
10
-45.28
20
-18.77
30
  6.13
11
-44.57
21
-19.70
31
  4.88
0
LINE
8
CentreLine
10
-44.57
20
-19.70
30
  4.88
11
-44.88
21
-17.83
31
  2.69
0
LINE
8
CentreLine
10
-44.88
20
-17.83
30
  2.69
11
-44.88
21
-17.83
31
 -1.54
0
LINE
8
CentreLine
10
-44.88
20
-17.83
30
 -1.54
11
-40.10
21
-18.73
31
 -0.59
0
LINE
8
CentreLine
10
-40.10
20
-18.73
30
 -0.59
11
-38.54
21
-18.15
31
  0.81
0
LINE
8
CentreLine
10
-38.54
20
-18.15
30
  0.81
11
-36.51
21
-18.43
31
 -0.63
0
LINE
8
CentreLine
10
-36.51
20
-18.43
30
 -0.63
11
-40.83
21
-23.64
31
 -1.94
0
LINE
8
CentreLine
10
-36.51
20
-18.43
30
 -0.63
11
-33.93
21
-17.27
31
  0.33
0
LINE
8
CentreLine
10
-33.93
20
-17.27
30
  0.33
11
-31.08
21
-18.18
31
  0.24
0
LINE
8
CentreLine
10
-31.08
20
-18.18
30
  0.24
11
-28.56
21
-18.44
31
 -0.25
0
LINE
8
CentreLine
10
-28.56
20
-18.44
30
 -0.25
11
-28.56
21
-18.44
31
 -5.06
0
LINE
8
CentreLine
10
-28.56
20
-18.44
30
 -0.25
11
-25.47
21
-15.42
31
 -1.10
0
LINE
8
CentreLine
10
-25.47
20
-15.42
30
 -1.10
11
-24.96
21
-13.82
31
 -2.67
0
LINE
8
CentreLine
10
-24.96
20
-13.82
30
 -2.67
11
-19.53
21
 -8.89
31
 -3.18
0
LINE
8
CentreLine
10
-19.53
20
 -8.89
30
 -3.18
11
-15.57
21
 -2.73
31
 -3.82
0
LINE
8
CentreLine
10
-15.57
20
 -2.73
30
 -3.82
11
-14.04
21
  0.94
31
 -2.82
0
LINE
8
CentreLine
10
-14.04
20
  0.94
30
 -2.82
11
 -8.49
21
  2.88
31
 -3.35
0
LINE
8
CentreLine
10
 -8.49
20
  2.88
30
 -3.35
11
 -4.83
21
  9.30
31
 -3.73
0
LINE
8
CentreLine
10
 -4.83
20
  9.30
30
 -3.73
11
 -0.73
21
 13.16
31
 -4.03
0
LINE
8
CentreLine
10
 -0.73
20
 13.16
30
 -4.03
11
  2.98
21
 11.97
31
 -4.30
0
LINE
8
CentreLine
10
  2.98
20
 11.97
30
 -4.30
11
  6.97
21
 12.48
31
 -4.16
0
LINE
8
CentreLine
10
  6.97
20
 12.48
30
 -4.16
11
  8.72
21
 14.91
31
 -4.31
0
LINE
8
CentreLine
10
  8.72
20
 14.91
30
 -4.31
11
 10.45
21
 12.17
31
 -4.94
0
LINE
8
CentreLine
10
 10.45
20
 12.17
30
 -4.94
11
 16.97
21
 11.40
31
 -4.94
0
LINE
8
CentreLine
10
 16.97
20
 11.40
30
 -4.94
11
 16.98
21
  9.59
31
 -4.85
0
LINE
8
CentreLine
10
 16.98
20
  9.59
30
 -4.85
11
 17.80
21
 11.29
31
 -4.62
0
LINE
8
CentreLine
10
 16.98
20
  9.59
30
 -4.85
11
 16.19
21
  7.37
31
 -4.00
0
LINE
8
CentreLine
10
 16.97
20
 11.40
30
 -4.94
11
 19.95
21
 11.46
31
 -4.60
0
LINE
8
CentreLine
10
 19.95
20
 11.46
30
 -4.60
11
 20.86
21
 14.22
31
 -4.42
0
LINE
8
CentreLine
10
 20.86
20
 14.22
30
 -4.42
11
 22.11
21
 18.13
31
 -4.57
0
LINE
8
CentreLine
10
 22.11
20
 18.13
30
 -4.57
11
 21.07
21
 19.86
31
 -4.41
0
LINE
8
CentreLine
10
 21.07
20
 19.86
30
 -4.41
11
 21.94
21
 21.57
31
 -5.88
0
LINE
8
CentreLine
10
 21.07
20
 19.86
30
 -4.41
11
 22.76
21
 20.76
31
 -4.61
0
LINE
8
CentreLine
10
 22.76
20
 20.76
30
 -4.61
11
 24.43
21
 23.64
31
 -4.86
0
LINE
8
CentreLine
10
 22.76
20
 20.76
30
 -4.61
11
 30.71
21
 18.94
31
 -4.81
0
LINE
8
CentreLine
10
 30.71
20
 18.94
30
 -4.81
11
 31.92
21
 17.64
31
 -4.66
0
LINE
8
CentreLine
10
 31.92
20
 17.64
30
 -4.66
11
 34.58
21
 17.23
31
 -4.64
0
LINE
8
CentreLine
10
 34.58
20
 17.23
30
 -4.64
11
 38.41
21
 19.98
31
 -4.95
0
LINE
8
CentreLine
10
 38.41
20
 19.98
30
 -4.95
11
 39.57
21
 20.46
31
 -5.06
0
LINE
8
CentreLine
10
 39.57
20
 20.46
30
 -5.06
11
 42.32
21
 19.43
31
 -5.25
0
LINE
8
CentreLine
10
 39.57
20
 20.46
30
 -5.06
11
 42.40
21
 17.71
31
 -4.79
0
LINE
8
CentreLine
10
 42.40
20
 17.71
30
 -4.79
11
 43.59
21
 18.21
31
 -5.43
0
LINE
8
CentreLine
10
 43.59
20
 18.21
30
 -5.43
11
 45.27
21
 16.81
31
 -6.13
000
ENDSEC
000
EOF
